<svg xmlns="http://www.w3.org/2000/svg" version="1.1" xmlnsXlink="http://www.w3.org/1999/xlink" xmlnsSvgjs="http://svgjs.dev/svgjs" width="2000" height="530" viewBox="0 0 2000 530"><g transform="matrix(1,0,0,1,-1.2121212121213603,0.3283156443427515)"><svg viewBox="0 0 396 105" data-background-color="#ffffff" preserveAspectRatio="xMidYMid meet" height="530" width="2000" xmlns="http://www.w3.org/2000/svg" xmlns:xlink="http://www.w3.org/1999/xlink"><g id="tight-bounds" transform="matrix(1,0,0,1,0.24000000000003752,-0.06504366538865725)"><svg viewBox="0 0 395.5199999999999 105.13008733077731" height="105.13008733077731" width="395.5199999999999"><g><svg viewBox="0 0 662.5537316448538 176.108241477437" height="105.13008733077731" width="395.5199999999999"><g transform="matrix(1,0,0,1,0,40.18315620853804)"><svg viewBox="0 0 395.52 95.74192906036092" height="95.74192906036092" width="395.52"><g><svg viewBox="0 0 395.52 95.74192906036092" height="95.74192906036092" width="395.52"><g><svg viewBox="0 0 395.52 95.74192906036092" height="95.74192906036092" width="395.52"><g transform="matrix(1,0,0,1,0,0)"><svg width="395.52" viewBox="1.44 -37.5 156.92000000000002 37.99" height="95.74192906036092" data-palette-color="#2cb1bc"><path d="M16.09-10.4L16.09-35.55 20.58-35.55 20.58-10.38Q20.58-5.27 17.98-2.39 15.38 0.49 10.99 0.49L10.99 0.49Q6.47 0.49 3.96-2.25 1.44-4.98 1.44-9.81L1.44-9.81 5.91-9.81Q5.91-6.76 7.25-5.05 8.59-3.34 10.99-3.34L10.99-3.34Q13.31-3.34 14.7-5.2 16.09-7.06 16.09-10.4L16.09-10.4ZM26.49-11.55L26.49-14.43Q26.49-20.19 29.28-23.55 32.08-26.9 36.67-26.9 41.26-26.9 44.05-23.63 46.85-20.36 46.92-14.72L46.92-14.72 46.92-11.94Q46.92-6.2 44.14-2.86 41.35 0.49 36.72 0.49L36.72 0.49Q32.13 0.49 29.36-2.76 26.58-6.01 26.49-11.55L26.49-11.55ZM30.81-14.45L30.81-11.94Q30.81-7.86 32.41-5.53 34.01-3.2 36.72-3.2L36.72-3.2Q42.43-3.2 42.6-11.45L42.6-11.45 42.6-14.43Q42.6-18.48 40.99-20.84 39.38-23.19 36.67-23.19L36.67-23.19Q34.01-23.19 32.41-20.84 30.81-18.48 30.81-14.45L30.81-14.45ZM71.63-14.55L71.63-11.94Q71.63-5.76 69.4-2.64 67.18 0.49 62.96 0.49L62.96 0.49Q58.76 0.49 56.66-3.13L56.66-3.13 56.44 0 52.51 0 52.51-37.5 56.81-37.5 56.81-23.51Q58.93-26.9 62.91-26.9L62.91-26.9Q67.26-26.9 69.43-23.83 71.6-20.75 71.63-14.55L71.63-14.55ZM67.33-11.74L67.33-14.4Q67.33-19.09 66.02-21.08 64.72-23.07 61.79-23.07L61.79-23.07Q58.44-23.07 56.81-19.46L56.81-19.46 56.81-6.88Q58.42-3.32 61.84-3.32L61.84-3.32Q64.77-3.32 66.04-5.37 67.3-7.42 67.33-11.74L67.33-11.74ZM98.53-35.55L98.53-31.69 89.18-31.69 89.18 0 84.71 0 84.71-31.69 75.38-31.69 75.38-35.55 98.53-35.55ZM112.22-26.56L112.25-22.36Q111.34-22.53 110.29-22.53L110.29-22.53Q106.97-22.53 105.65-18.9L105.65-18.9 105.65 0 101.33 0 101.33-26.42 105.53-26.42 105.61-23.73Q107.34-26.9 110.51-26.9L110.51-26.9Q111.54-26.9 112.22-26.56L112.22-26.56ZM133.65 0L129.16 0Q128.77-0.85 128.6-2.88L128.6-2.88Q126.31 0.49 122.74 0.49L122.74 0.49Q119.15 0.49 117.14-1.53 115.12-3.54 115.12-7.2L115.12-7.2Q115.12-11.23 117.86-13.6 120.59-15.97 125.35-16.02L125.35-16.02 128.53-16.02 128.53-18.82Q128.53-21.19 127.48-22.19 126.43-23.19 124.28-23.19L124.28-23.19Q122.33-23.19 121.11-22.03 119.88-20.87 119.88-19.09L119.88-19.09 115.56-19.09Q115.56-21.12 116.76-22.96 117.96-24.8 119.98-25.85 122.01-26.9 124.5-26.9L124.5-26.9Q128.55-26.9 130.66-24.89 132.78-22.88 132.82-19.02L132.82-19.02 132.82-5.69Q132.85-2.64 133.65-0.39L133.65-0.39 133.65 0ZM123.4-3.44L123.4-3.44Q124.99-3.44 126.43-4.32 127.87-5.2 128.53-6.52L128.53-6.52 128.53-12.82 126.09-12.82Q123.01-12.77 121.23-11.44 119.45-10.11 119.45-7.71L119.45-7.71Q119.45-5.47 120.35-4.46 121.25-3.44 123.4-3.44ZM153.33 0L146.15-12.08 143.86-9.45 143.86 0 139.54 0 139.54-37.5 143.86-37.5 143.86-15.06 152.08-26.42 157.26-26.42 148.86-15.38 158.36 0 153.33 0Z" opacity="1" transform="matrix(1,0,0,1,0,0)" fill="#2cb1bc" class="undefined-text-0" data-fill-palette-color="primary" id="text-0"></path></svg></g></svg></g></svg></g></svg></g><g transform="matrix(1,0,0,1,418.12237164485373,0)"><svg viewBox="0 0 244.43135999999998 176.108241477437" height="176.108241477437" width="244.43135999999998"><g><svg xmlns="http://www.w3.org/2000/svg" xmlns:xlink="http://www.w3.org/1999/xlink" version="1.1" x="0" y="0" viewBox="0.6440000000000001 14.501999999999999 99.63199999999999 71.783" enable-background="new 0 0 100 100.004" xml:space="preserve" width="244.43135999999998" height="176.108241477437" class="icon-icon-0" data-fill-palette-color="accent" id="icon-0"><g fill="#2cb1bc" data-fill-palette-color="accent"><g fill="#2cb1bc" data-fill-palette-color="accent"><g fill="#2cb1bc" data-fill-palette-color="accent"><g fill="#2cb1bc" data-fill-palette-color="accent"><g fill="#2cb1bc" data-fill-palette-color="accent"><g fill="#2cb1bc" data-fill-palette-color="accent"><g fill="#2cb1bc" data-fill-palette-color="accent"><path d="M67.538 23.159H63.96v-4.687h-27v4.687h-3.57v-8.657h34.149V23.159z" fill="#2cb1bc" data-fill-palette-color="accent"></path></g></g></g></g></g></g><g fill="#2cb1bc" data-fill-palette-color="accent"><path d="M94.291 25.7H6.627c-3.304 0-5.983 2.68-5.983 5.982v48.622c0 3.301 2.679 5.981 5.983 5.981h87.664c3.308 0 5.985-2.681 5.985-5.981V31.682C100.276 28.379 97.599 25.7 94.291 25.7zM96.996 65.337c-0.83 1.879-3.016 4.06-5.604 4.06H9.528c-2.589 0-4.774-2.181-5.607-4.061 1.529 1.01 3.61 1.65 5.46 1.65h82.156C93.39 66.986 95.47 66.346 96.996 65.337zM60.078 61.991H40.849v-5.53h19.229V61.991z" fill="#2cb1bc" data-fill-palette-color="accent"></path></g></g></svg><g></g></g></svg></g></svg></g><defs></defs></svg><rect width="395.5199999999999" height="105.13008733077731" fill="none" stroke="none" visibility="hidden"></rect></g></svg></g></svg>