<svg xmlns="http://www.w3.org/2000/svg" version="1.1" xmlnsXlink="http://www.w3.org/1999/xlink" xmlnsSvgjs="http://svgjs.dev/svgjs" width="2000" height="520" viewBox="0 0 2000 520"><g transform="matrix(1,0,0,1,-1.2121209333189427,-0.6521308642980443)"><svg viewBox="0 0 396 103" data-background-color="#ffffff" preserveAspectRatio="xMidYMid meet" height="520" width="2000" xmlns="http://www.w3.org/2000/svg" xmlns:xlink="http://www.w3.org/1999/xlink"><defs></defs><g id="tight-bounds" transform="matrix(1,0,0,1,0.2400000552029269,0.1291732325432804)"><svg viewBox="0 0 395.52 102.7416546924131" height="102.7416546924131" width="395.52"><g><svg viewBox="0 0 677.9561206374525 176.1082464682977" height="102.7416546924131" width="395.52"><g transform="matrix(1,0,0,1,0,7.561483920003113)"><svg viewBox="0 0 395.52 160.98527862829147" height="160.98527862829147" width="395.52"><g><svg viewBox="0 0 395.52 160.98527862829147" height="160.98527862829147" width="395.52"><g><svg viewBox="0 0 395.52 160.98527862829147" height="160.98527862829147" width="395.52"><g transform="matrix(1,0,0,1,0,0)"><svg width="395.52" viewBox="1.440000057220459 -38.0099983215332 119.58999633789062 48.68000030517578" height="160.98527862829147" data-palette-color="#2cb1bc"><path d="M16.09-10.4L16.09-35.55 20.58-35.55 20.58-10.38Q20.58-5.27 17.98-2.39 15.38 0.49 10.99 0.49L10.99 0.49Q6.47 0.49 3.96-2.25 1.44-4.98 1.44-9.81L1.44-9.81 5.91-9.81Q5.91-6.76 7.25-5.05 8.59-3.34 10.99-3.34L10.99-3.34Q13.31-3.34 14.7-5.2 16.09-7.06 16.09-10.4L16.09-10.4ZM26.49-11.55L26.49-14.43Q26.49-20.19 29.28-23.55 32.08-26.9 36.67-26.9 41.26-26.9 44.05-23.63 46.85-20.36 46.92-14.72L46.92-14.72 46.92-11.94Q46.92-6.2 44.14-2.86 41.35 0.49 36.72 0.49L36.72 0.49Q32.13 0.49 29.36-2.76 26.58-6.01 26.49-11.55L26.49-11.55ZM30.81-14.45L30.81-11.94Q30.81-7.86 32.41-5.53 34.01-3.2 36.72-3.2L36.72-3.2Q42.43-3.2 42.6-11.45L42.6-11.45 42.6-14.43Q42.6-18.48 40.99-20.84 39.38-23.19 36.67-23.19L36.67-23.19Q34.01-23.19 32.41-20.84 30.81-18.48 30.81-14.45L30.81-14.45ZM71.63-14.55L71.63-11.94Q71.63-5.76 69.4-2.64 67.18 0.49 62.96 0.49L62.96 0.49Q58.76 0.49 56.66-3.13L56.66-3.13 56.44 0 52.51 0 52.51-37.5 56.81-37.5 56.81-23.51Q58.93-26.9 62.91-26.9L62.91-26.9Q67.26-26.9 69.43-23.83 71.6-20.75 71.63-14.55L71.63-14.55ZM67.33-11.74L67.33-14.4Q67.33-19.09 66.02-21.08 64.72-23.07 61.79-23.07L61.79-23.07Q58.44-23.07 56.81-19.46L56.81-19.46 56.81-6.88Q58.42-3.32 61.84-3.32L61.84-3.32Q64.77-3.32 66.04-5.37 67.3-7.42 67.33-11.74L67.33-11.74ZM81.8-26.42L81.8 0 77.48 0 77.48-26.42 81.8-26.42ZM82.15-33.42L82.15-33.42Q82.15-32.32 81.54-31.59 80.93-30.86 79.68-30.86L79.68-30.86Q78.46-30.86 77.85-31.59 77.24-32.32 77.24-33.42 77.24-34.52 77.85-35.28 78.46-36.04 79.68-36.04 80.9-36.04 81.52-35.27 82.15-34.5 82.15-33.42ZM94.81 0L90.49 0 90.49-22.92 87.05-22.92 87.05-26.42 90.49-26.42 90.49-29.47Q90.57-33.5 92.53-35.75 94.5-38.01 98.09-38.01L98.09-38.01Q99.38-38.01 100.7-37.6L100.7-37.6 100.48-33.94Q99.55-34.16 98.5-34.16L98.5-34.16Q94.81-34.16 94.81-28.91L94.81-28.91 94.81-26.42 99.33-26.42 99.33-22.92 94.81-22.92 94.81 0ZM106.75-26.42L111.63-7.18 116.44-26.42 121.03-26.42 112.39 3.74Q111.41 7.13 109.63 8.9 107.85 10.67 105.58 10.67L105.58 10.67Q104.7 10.67 103.33 10.28L103.33 10.28 103.33 6.62 104.28 6.71Q106.16 6.71 107.23 5.82 108.29 4.93 108.95 2.73L108.95 2.73 109.8-0.22 102.04-26.42 106.75-26.42Z" opacity="1" transform="matrix(1,0,0,1,0,0)" fill="#2cb1bc" class="undefined-text-0" data-fill-palette-color="primary" id="text-0"></path></svg></g></svg></g></svg></g></svg></g><g transform="matrix(1,0,0,1,433.5247606374525,0)"><svg viewBox="0 0 244.43135999999996 176.1082464682977" height="176.1082464682977" width="244.43135999999996"><g><svg xmlns="http://www.w3.org/2000/svg" xmlns:xlink="http://www.w3.org/1999/xlink" version="1.1" x="0" y="0" viewBox="0.6440000534057617 14.50200080871582 99.63200378417969 71.78300476074219" enable-background="new 0 0 100 100.004" xml:space="preserve" width="244.43135999999996" height="176.1082464682977" class="icon-icon-0" data-fill-palette-color="accent" id="icon-0"><g fill="#2cb1bc" data-fill-palette-color="accent"><g fill="#2cb1bc" data-fill-palette-color="accent"><g fill="#2cb1bc" data-fill-palette-color="accent"><g fill="#2cb1bc" data-fill-palette-color="accent"><g fill="#2cb1bc" data-fill-palette-color="accent"><g fill="#2cb1bc" data-fill-palette-color="accent"><g fill="#2cb1bc" data-fill-palette-color="accent"><path d="M67.538 23.159H63.96v-4.687h-27v4.687h-3.57v-8.657h34.149V23.159z" fill="#2cb1bc" data-fill-palette-color="accent"></path></g></g></g></g></g></g><g fill="#2cb1bc" data-fill-palette-color="accent"><path d="M94.291 25.7H6.627c-3.304 0-5.983 2.68-5.983 5.982v48.622c0 3.301 2.679 5.981 5.983 5.981h87.664c3.308 0 5.985-2.681 5.985-5.981V31.682C100.276 28.379 97.599 25.7 94.291 25.7zM96.996 65.337c-0.83 1.879-3.016 4.06-5.604 4.06H9.528c-2.589 0-4.774-2.181-5.607-4.061 1.529 1.01 3.61 1.65 5.46 1.65h82.156C93.39 66.986 95.47 66.346 96.996 65.337zM60.078 61.991H40.849v-5.53h19.229V61.991z" fill="#2cb1bc" data-fill-palette-color="accent"></path></g></g></svg></g></svg></g></svg></g></svg><rect width="395.52" height="102.7416546924131" fill="none" stroke="none" visibility="hidden"></rect></g></svg></g></svg>